<svg xmlns="http://www.w3.org/2000/svg" width="48" height="48" viewBox="0 0 48 48" fill="none">
  <!-- Circular background -->
  <circle cx="24" cy="24" r="24" fill="#16a34a"/>
  <!-- Leaf shape representing Green India -->
  <path d="M24 8c-6 4-12 12-12 20 0 4 2.5 7 5 9 2 1.6 4.5 2.5 7 3 2.5-.5 5-1.4 7-3 2.5-2 5-5 5-9 0-8-6-16-12-20z" fill="#22c55e"/>
  <!-- Leaf vein / Ashoka Chakra center line -->
  <line x1="24" y1="12" x2="24" y2="38" stroke="#fff" stroke-width="1.5" stroke-linecap="round" opacity="0.8"/>
  <!-- Side veins -->
  <path d="M24 18l-5 5M24 22l-6 4M24 26l-5 4M24 18l5 5M24 22l6 4M24 26l5 4" stroke="#fff" stroke-width="1" stroke-linecap="round" opacity="0.5"/>
  <!-- Small dot at top -->
  <circle cx="24" cy="10" r="1.5" fill="#fff" opacity="0.9"/>
</svg>
